<svg width="46" height="46" viewBox="0 0 46 46" fill="none" xmlns="http://www.w3.org/2000/svg">
<rect x="0.146739" y="0.146739" width="9.09783" height="9.09783" stroke="black" stroke-opacity="0.07" stroke-width="0.293478"/>
<rect x="9.24464" y="0.146739" width="9.09783" height="9.09783" stroke="black" stroke-opacity="0.07" stroke-width="0.293478"/>
<rect x="18.3424" y="0.146739" width="9.09783" height="9.09783" stroke="black" stroke-opacity="0.07" stroke-width="0.293478"/>
<rect x="27.4403" y="0.146739" width="9.09783" height="9.09783" stroke="black" stroke-opacity="0.07" stroke-width="0.293478"/>
<rect x="36.5381" y="0.146739" width="9.09783" height="9.09783" stroke="black" stroke-opacity="0.07" stroke-width="0.293478"/>
<rect x="0.146739" y="9.24452" width="9.09783" height="9.09783" stroke="black" stroke-opacity="0.07" stroke-width="0.293478"/>
<rect x="9.0979" y="9.09778" width="9.3913" height="9.3913" fill="black" fill-opacity="0.09"/>
<rect x="9.24464" y="9.24452" width="9.09783" height="9.09783" stroke="black" stroke-opacity="0.07" stroke-width="0.293478"/>
<rect x="18.3424" y="9.24452" width="9.09783" height="9.09783" stroke="black" stroke-opacity="0.07" stroke-width="0.293478"/>
<rect x="27.4403" y="9.24452" width="9.09783" height="9.09783" stroke="black" stroke-opacity="0.07" stroke-width="0.293478"/>
<rect x="36.5381" y="9.24452" width="9.09783" height="9.09783" stroke="black" stroke-opacity="0.07" stroke-width="0.293478"/>
<rect x="0.146739" y="18.3424" width="9.09783" height="9.09783" stroke="black" stroke-opacity="0.07" stroke-width="0.293478"/>
<rect x="9.24464" y="18.3424" width="9.09783" height="9.09783" stroke="black" stroke-opacity="0.07" stroke-width="0.293478"/>
<rect x="18.3424" y="18.3424" width="9.09783" height="9.09783" stroke="black" stroke-opacity="0.07" stroke-width="0.293478"/>
<rect x="27.4403" y="18.3424" width="9.09783" height="9.09783" stroke="black" stroke-opacity="0.07" stroke-width="0.293478"/>
<rect x="36.5381" y="18.3424" width="9.09783" height="9.09783" stroke="black" stroke-opacity="0.07" stroke-width="0.293478"/>
<rect x="0.146739" y="27.4402" width="9.09783" height="9.09783" stroke="black" stroke-opacity="0.07" stroke-width="0.293478"/>
<rect x="9.24464" y="27.4402" width="9.09783" height="9.09783" stroke="black" stroke-opacity="0.07" stroke-width="0.293478"/>
<rect x="18.3424" y="27.4402" width="9.09783" height="9.09783" stroke="black" stroke-opacity="0.07" stroke-width="0.293478"/>
<rect x="27.2936" y="27.2935" width="9.3913" height="9.3913" fill="black" fill-opacity="0.09"/>
<rect x="27.4403" y="27.4402" width="9.09783" height="9.09783" stroke="black" stroke-opacity="0.07" stroke-width="0.293478"/>
<rect x="36.5381" y="27.4402" width="9.09783" height="9.09783" stroke="black" stroke-opacity="0.07" stroke-width="0.293478"/>
<rect x="0.146739" y="36.5381" width="9.09783" height="9.09783" stroke="black" stroke-opacity="0.07" stroke-width="0.293478"/>
<rect x="9.24464" y="36.5381" width="9.09783" height="9.09783" stroke="black" stroke-opacity="0.07" stroke-width="0.293478"/>
<rect x="18.3424" y="36.5381" width="9.09783" height="9.09783" stroke="black" stroke-opacity="0.07" stroke-width="0.293478"/>
<rect x="27.4403" y="36.5381" width="9.09783" height="9.09783" stroke="black" stroke-opacity="0.07" stroke-width="0.293478"/>
<rect x="36.5381" y="36.5381" width="9.09783" height="9.09783" stroke="black" stroke-opacity="0.07" stroke-width="0.293478"/>
<circle cx="23.093" cy="22.8913" r="12.913" fill="#04332D" shape-rendering="crispEdges"/>
<circle cx="23.093" cy="22.8913" r="13.5" stroke="white" stroke-opacity="0.3" stroke-width="1.17391" shape-rendering="crispEdges"/>
<g clip-path="url(#clip0_49_291)">
<rect x="7.29956" y="9.09778" width="9.3913" height="9.3913" fill="white" fill-opacity="0.07"/>
<rect x="7.4463" y="9.24452" width="9.09783" height="9.09783" stroke="white" stroke-opacity="0.08" stroke-width="0.293478"/>
<rect x="16.5441" y="9.24452" width="9.09783" height="9.09783" stroke="white" stroke-opacity="0.08" stroke-width="0.293478"/>
<rect x="25.642" y="9.24452" width="9.09783" height="9.09783" stroke="white" stroke-opacity="0.08" stroke-width="0.293478"/>
<rect x="7.4463" y="18.3424" width="9.09783" height="9.09783" stroke="white" stroke-opacity="0.08" stroke-width="0.293478"/>
<rect x="16.5441" y="18.3424" width="9.09783" height="9.09783" stroke="white" stroke-opacity="0.08" stroke-width="0.293478"/>
<rect x="25.642" y="18.3424" width="9.09783" height="9.09783" stroke="white" stroke-opacity="0.08" stroke-width="0.293478"/>
<rect x="7.4463" y="27.4402" width="9.09783" height="9.09783" stroke="white" stroke-opacity="0.08" stroke-width="0.293478"/>
<rect x="16.5441" y="27.4402" width="9.09783" height="9.09783" stroke="white" stroke-opacity="0.08" stroke-width="0.293478"/>
<rect x="25.4952" y="27.2935" width="9.3913" height="9.3913" fill="white" fill-opacity="0.07"/>
<rect x="25.642" y="27.4402" width="9.09783" height="9.09783" stroke="white" stroke-opacity="0.08" stroke-width="0.293478"/>
</g>
<defs>
<clipPath id="clip0_49_291">
<rect x="8.17993" y="9.97827" width="25.8261" height="25.8261" rx="12.913" fill="white"/>
</clipPath>
</defs>
</svg>
